  0
SECTION
  2
HEADER
  9
$ACADVER
  1
AC1009
  9
$INSBASE
 10
0.0
 20
0.0
 30
0.0
  9
$EXTMIN
 10
-55.3664610276923
 20
-55.3664610276923
 30
0.0
  9
$EXTMAX
 10
55.3664610276923
 20
55.3664610276923
 30
0.0
  9
$LIMMIN
 10
0.0
 20
0.0
  9
$LIMMAX
 10
12.0000
 20
 9.0000
9
$ORTHOMODE
70
0
9
$REGENMODE
70
1
9
$FILLMODE
70
1
9
$QTEXTMODE
70
0
9
$MIRRTEXT
70
1
9
$DRAGMODE
70
2
9
$LTSCALE
40
1.0
9
$OSMODE
70
0
9
$ATTMODE
70
1
9
$TEXTSIZE
40
0.2
9
$TRACEWID
40
0.05
9
$TEXTSTYLE
7
STANDARD
9
$CLAYER
8
0
9
$CELTYPE
6
BYLAYER
9
$CECOLOR
62
256
9
$DIMSCALE
40
1.0
9
$DIMASZ
40
0.18
9
$DIMEXO
40
0.0625
9
$DIMDLI
40
0.38
9
$DIMRND
40
0.0
9
$DIMDLE
40
0.0
9
$DIMEXE
40
0.18
9
$DIMTP
40
0.0
9
$DIMTM
40
0.0
9
$DIMTXT
40
0.18
9
$DIMCEN
40
0.09
9
$DIMTSZ
40
0.0
9
$DIMTOL
70
0
9
$DIMLIM
70
0
9
$DIMTIH
70
1
9
$DIMTOH
70
1
9
$DIMSE1
70
0
9
$DIMSE2
70
0
9
$DIMTAD
70
0
9
$DIMZIN
70
0
9
$DIMBLK
1

9
$DIMASO
70
1
9
$DIMSHO
70
1
9
$DIMPOST
1

9
$DIMAPOST
1

9
$DIMALT
70
0
9
$DIMALTD
70
2
9
$DIMALTF
40
25.4
9
$DIMLFAC
40
1.0
9
$DIMTOFL
70
0
9
$DIMTVP
40
0.0
9
$DIMTIX
70
0
9
$DIMSOXD
70
0
9
$DIMSAH
70
0
9
$DIMBLK1
1

9
$DIMBLK2
1

9
$DIMSTYLE
2
*UNNAMED
9
$DIMCLRD
70
0
9
$DIMCLRE
70
0
9
$DIMCLRT
70
0
9
$DIMTFAC
40
1.0
9
$DIMGAP
40
0.09
9
$LUNITS
70
2
9
$LUPREC
70
4
9
$SKETCHINC
40
0.1
9
$FILLETRAD
40
0.0
9
$AUNITS
70
0
9
$AUPREC
70
0
9
$MENU
1
acad
9
$ELEVATION
40
0.0
9
$PELEVATION
40
0.0
9
$THICKNESS
40
0.0
9
$LIMCHECK
70
0
9
$BLIPMODE
70
1
9
$CHAMFERA
40
0.0
9
$CHAMFERB
40
0.0
9
$SKPOLY
70
0
9
$TDCREATE
40
2449214.701881018
9
$TDUPDATE
40
2449214.701881018
9
$TDINDWG
40
0.0000000000
9
$TDUSRTIMER
40
0.0000000000
9
$USRTIMER
70
1
9
$ANGBASE
50
0.0
9
$ANGDIR
70
0
9
$PDMODE
70
0
9
$PDSIZE
40
0.0
9
$PLINEWID
40
0.0
9
$COORDS
70
1
9
$SPLFRAME
70
0
9
$SPLINETYPE
70
6
9
$SPLINESEGS
70
8
9
$ATTDIA
70
0
9
$ATTREQ
70
1
9
$HANDLING
70
0
9
$HANDSEED
5
0
9
$SURFTAB1
70
6
9
$SURFTAB2
70
6
9
$SURFTYPE
70
6
9
$SURFU
70
6
9
$SURFV
70
6
9
$UCSNAME
2

9
$UCSORG
10
0.0
20
0.0
30
0.0
9
$UCSXDIR
10
1.0
20
0.0
30
0.0
9
$UCSYDIR
10
0.0
20
1.0
30
0.0
9
$PUCSNAME
2

9
$PUCSORG
10
0.0
20
0.0
30
0.0
9
$PUCSXDIR
10
1.0
20
0.0
30
0.0
9
$PUCSYDIR
10
0.0
20
1.0
30
0.0
9
$USERI1
70
0
9
$USERI2
70
0
9
$USERI3
70
0
9
$USERI4
70
0
9
$USERI5
70
0
9
$USERR1
40
0.0
9
$USERR2
40
0.0
9
$USERR3
40
0.0
9
$USERR4
40
0.0
9
$USERR5
40
0.0
9
$WORLDVIEW
70
1
9
$SHADEDGE
70
3
9
$SHADEDIF
70
70
9
$TILEMODE
70
1
9
$MAXACTVP
70
16
9
$PINSBASE
10
0.0
20
0.0
30
0.0
9
$PLIMCHECK
70
0
  9
$PEXTMIN
 10
1.0000000000000000E+020
 20
1.0000000000000000E+020
 30
1.0000000000000000E+020
  9
$PEXTMAX
 10
-1.0000000000000000E+020
 20
-1.0000000000000000E+020
 30
-1.0000000000000000E+020
  9
$PLIMMIN
 10
-55.3664610276923
 20
-55.3664610276923
  9
$PLIMMAX
 10
12.0000
 20
 9.0000
  9
$UNITMODE
 70
0
  9
$VISRETAIN
 70
1
  9
$PLINEGEN
 70
0
  9
$PSLTSCALE
 70
1
  0
ENDSEC
  0
SECTION
  2
TABLES
  0
TABLE
  2
VPORT
 70
3
  0
VPORT
  2
*ACTIVE
 70
0
 10
0.0
 20
0.0
 11
1.0
 21
1.0
 12
0
 22
0
 13
0.0
 23
0.0
 14
1.0
 24
1.0
 15
1.0
 25
1.0
 16
0.0
 26
0.0
 36
1.0
 17
0.0
 27
0.0
 37
0.0
 40
110.732922055385
 41
1
 42
50.0
 43
0.0
 44
0.0
 50
0.0
 51
0.0
 71
0
 72
100
 73
1
 74
3
 75
0
 76
0
 77
0
 78
0
  0
ENDTAB
0
TABLE
2
LTYPE
70
1
0
LTYPE
2
CONTINUOUS
70
64
3
Solid line
72
65
73
0
40
0.0
0
ENDTAB
  0
TABLE
  2
LAYER
 70
2
  0
LAYER
  2
Slice
 70
0
 62
7
  6
CONTINUOUS
  0
ENDTAB
0
TABLE
2
STYLE
70
1
0
STYLE
2
STANDARD
70
64
40
0.0
41
1.0
50
0.0
71
0
42
0.2
3
txt
4

0
ENDTAB
0
TABLE
2
VIEW
70
0
0
ENDTAB
0
TABLE
2
UCS
70
0
0
ENDTAB
0
TABLE
2
APPID
70
1
0
APPID
2
ACAD
70
64
0
ENDTAB
0
TABLE
2
DIMSTYLE
70
0
0
ENDTAB
0
ENDSEC
0
SECTION
2
BLOCKS
0
ENDSEC
  0
SECTION
  2
ENTITIES
  0
LINE
  5
0
  8
Slice
 10
23.5466558135123
 20
55.3664610276923
 30
0
 11
19.3644432725311
 21
51.1842484867111
 31
0
  0
LINE
  5
0
  8
Slice
 10
24.9608693150997
 20
55.3664610276923
 30
0
 11
23.5466558135123
 21
55.3664610276923
 31
0
  0
LINE
  5
0
  8
Slice
 10
-51.1842484131805
 20
-19.3644433094953
 30
0
 11
-55.3664610276923
 21
-23.5466558135121
 31
0
  0
LINE
  5
0
  8
Slice
 10
-24.9608693150997
 20
55.3664610276923
 30
0
 11
-55.3664610276923
 21
24.9608693150997
 31
0
  0
ARC
  5
0
  8
Slice
 10
-13.2762281671716
 20
-46.9927045360723
 30
0
 40
5.99999999999996
 50
69.685909100591
 51
200.314090899409
  0
LINE
  5
0
  8
Slice
 10
-24.9608693150997
 20
-55.3664610276923
 30
0
 11
-23.5466558135123
 21
-55.3664610276923
 31
0
  0
LINE
  5
0
  8
Slice
 10
-55.3664610276923
 20
-23.5466558135121
 30
0
 11
-55.3664610276923
 21
-24.9608693150997
 31
0
  0
ARC
  5
0
  8
Slice
 10
13.2762281671715
 20
-46.9927045360723
 30
0
 40
6.00000000000006
 50
-20.3140902835481
 51
110.314090859772
  0
LINE
  5
0
  8
Slice
 10
24.9608693150997
 20
-55.3664610276923
 30
0
 11
55.3664610276923
 21
-24.9608693150997
 31
0
  0
LINE
  5
0
  8
Slice
 10
1.09601551083915
 20
8.52063671329789
 30
0
 11
2.54558441227157
 21
34.3653895656663
 31
0
  0
ARC
  5
0
  8
Slice
 10
10.4988977840959
 20
-39.4902758664185
 30
0
 40
1.99999999999998
 50
-134.99999971189
 51
-69.6859091402277
  0
LINE
  5
0
  8
Slice
 10
2.54558441227157
 20
34.3653895656663
 30
0
 11
9.54594154601839
 21
41.3657466994131
 31
0
  0
ARC
  5
0
  8
Slice
 10
-13.2762281671715
 20
46.9927045360723
 30
0
 40
6.00000000000006
 50
159.685909716452
 51
290.314090859772
  0
LINE
  5
0
  8
Slice
 10
8.52063671329789
 20
-1.09601551083915
 30
0
 11
34.3653895656663
 21
-2.54558441227157
 31
0
  0
ARC
  5
0
  8
Slice
 10
46.9927045360723
 20
-13.2762281671716
 30
0
 40
5.99999999999996
 50
159.685909100591
 51
290.314090899409
  0
LINE
  5
0
  8
Slice
 10
51.1842484131805
 20
19.3644433094953
 30
0
 11
55.3664610276923
 21
23.5466558135121
 31
0
  0
LINE
  5
0
  8
Slice
 10
-9.54594154601839
 20
41.3657466994131
 30
0
 11
-2.54558441227157
 21
34.3653895656663
 31
0
  0
LINE
  5
0
  8
Slice
 10
55.3664610276923
 20
24.9608693150997
 30
0
 11
24.9608693150997
 21
55.3664610276923
 31
0
  0
ARC
  5
0
  8
Slice
 10
39.4902758664185
 20
10.4988977840959
 30
0
 40
1.99999999999998
 50
-44.9999997118903
 51
20.3140908597722
  0
LINE
  5
0
  8
Slice
 10
-34.3653895656663
 20
2.54558441227157
 30
0
 11
-41.3657466994131
 21
9.54594154601839
 31
0
  0
LINE
  5
0
  8
Slice
 10
55.3664610276923
 20
-24.9608693150997
 30
0
 11
55.3664610276923
 21
-23.5466558135123
 31
0
  0
LINE
  5
0
  8
Slice
 10
-8.52063671329789
 20
1.09601551083915
 30
0
 11
-34.3653895656663
 21
2.54558441227157
 31
0
  0
LINE
  5
0
  8
Slice
 10
-19.3644433094953
 20
51.1842484131805
 30
0
 11
-23.5466558135121
 21
55.3664610276923
 31
0
  0
LINE
  5
0
  8
Slice
 10
55.3664610276923
 20
23.5466558135121
 30
0
 11
55.3664610276923
 21
24.9608693150997
 31
0
  0
LINE
  5
0
  8
Slice
 10
8.52063671329789
 20
1.09601551083915
 30
0
 11
1.09601551083915
 21
8.52063671329789
 31
0
  0
LINE
  5
0
  8
Slice
 10
-55.3664610276923
 20
-24.9608693150997
 30
0
 11
-24.9608693150997
 21
-55.3664610276923
 31
0
  0
LINE
  5
0
  8
Slice
 10
-2.54558441227157
 20
34.3653895656663
 30
0
 11
-1.09601551083915
 21
8.52063671329789
 31
0
  0
ARC
  5
0
  8
Slice
 10
20.7786568349043
 20
49.7700349243381
 30
0
 40
2
 50
135.000000000004
 51
200.314090899406
  0
LINE
  5
0
  8
Slice
 10
-23.5466558135123
 20
-55.3664610276923
 30
0
 11
-19.3644432725311
 21
-51.1842484867111
 31
0
  0
LINE
  5
0
  8
Slice
 10
34.3653895656663
 20
-2.54558441227157
 30
0
 11
41.3657466994131
 21
-9.54594154601839
 31
0
  0
LINE
  5
0
  8
Slice
 10
55.3664610276923
 20
-23.5466558135123
 30
0
 11
51.1842484867111
 21
-19.3644432725311
 31
0
  0
LINE
  5
0
  8
Slice
 10
-1.09601551083915
 20
8.52063671329789
 30
0
 11
-8.52063671329789
 21
1.09601551083915
 31
0
  0
LINE
  5
0
  8
Slice
 10
-55.3664610276923
 20
23.5466558135123
 30
0
 11
-51.1842484867111
 21
19.3644432725311
 31
0
  0
LINE
  5
0
  8
Slice
 10
23.5466558135121
 20
-55.3664610276923
 30
0
 11
24.9608693150997
 21
-55.3664610276923
 31
0
  0
LINE
  5
0
  8
Slice
 10
2.54558441227157
 20
-34.3653895656663
 30
0
 11
1.09601551083915
 21
-8.52063671329789
 31
0
  0
LINE
  5
0
  8
Slice
 10
1.09601551083915
 20
-8.52063671329789
 30
0
 11
8.52063671329789
 21
-1.09601551083915
 31
0
  0
ARC
  5
0
  8
Slice
 10
49.7700349243381
 20
-20.7786568349043
 30
0
 40
2
 50
45.0000000000043
 51
110.314090899406
  0
ARC
  5
0
  8
Slice
 10
13.2762281671716
 20
46.9927045360723
 30
0
 40
5.99999999999996
 50
-110.314090899409
 51
20.3140908994095
  0
LINE
  5
0
  8
Slice
 10
-8.52063671329789
 20
-1.09601551083915
 30
0
 11
-1.09601551083915
 21
-8.52063671329789
 31
0
  0
ARC
  5
0
  8
Slice
 10
39.4902758683397
 20
-10.4988977789059
 30
0
 40
2.00000000000005
 50
-20.3140908994069
 51
44.9999999999989
  0
ARC
  5
0
  8
Slice
 10
49.7700348436961
 20
20.7786568647571
 30
0
 40
2.00000000000002
 50
-110.31409028355
 51
-44.9999997118904
  0
LINE
  5
0
  8
Slice
 10
-55.3664610276923
 20
24.9608693150997
 30
0
 11
-55.3664610276923
 21
23.5466558135123
 31
0
  0
ARC
  5
0
  8
Slice
 10
-46.9927045360723
 20
13.2762281671716
 30
0
 40
5.99999999999996
 50
-20.314090899409
 51
110.314090899409
  0
LINE
  5
0
  8
Slice
 10
-41.3657466994131
 20
-9.54594154601839
 30
0
 11
-34.3653895656663
 21
-2.54558441227157
 31
0
  0
ARC
  5
0
  8
Slice
 10
-49.7700349243381
 20
20.7786568349043
 30
0
 40
2
 50
-134.999999999996
 51
-69.685909100594
  0
ARC
  5
0
  8
Slice
 10
-20.7786568647571
 20
49.7700348436961
 30
0
 40
2.00000000000002
 50
-20.3140902835499
 51
45.0000002881096
  0
LINE
  5
0
  8
Slice
 10
-34.3653895656663
 20
-2.54558441227157
 30
0
 11
-8.52063671329789
 21
-1.09601551083915
 31
0
  0
LINE
  5
0
  8
Slice
 10
-1.09601551083915
 20
-8.52063671329789
 30
0
 11
-2.54558441227157
 21
-34.3653895656663
 31
0
  0
ARC
  5
0
  8
Slice
 10
-49.7700348436961
 20
-20.7786568647571
 30
0
 40
2.00000000000002
 50
69.6859097164501
 51
135.00000028811
  0
LINE
  5
0
  8
Slice
 10
41.3657466994131
 20
9.54594154601839
 30
0
 11
34.3653895656663
 21
2.54558441227157
 31
0
  0
ARC
  5
0
  8
Slice
 10
-10.4988977840959
 20
39.4902758664185
 30
0
 40
1.99999999999998
 50
45.0000002881097
 51
110.314090859772
  0
ARC
  5
0
  8
Slice
 10
-39.4902758683397
 20
10.4988977789059
 30
0
 40
2.00000000000005
 50
159.685909100593
 51
224.999999999999
  0
ARC
  5
0
  8
Slice
 10
-20.7786568349043
 20
-49.7700349243381
 30
0
 40
2
 50
-44.9999999999957
 51
20.314090899406
  0
ARC
  5
0
  8
Slice
 10
10.4988977789059
 20
39.4902758683397
 30
0
 40
2.00000000000005
 50
69.6859091005931
 51
134.999999999999
  0
ARC
  5
0
  8
Slice
 10
46.9927045360723
 20
13.2762281671715
 30
0
 40
6.00000000000006
 50
69.6859097164519
 51
200.314090859772
  0
ARC
  5
0
  8
Slice
 10
20.7786568647571
 20
-49.7700348436961
 30
0
 40
2.00000000000002
 50
159.68590971645
 51
225.00000028811
  0
LINE
  5
0
  8
Slice
 10
9.54594154601839
 20
-41.3657466994131
 30
0
 11
2.54558441227157
 21
-34.3653895656663
 31
0
  0
LINE
  5
0
  8
Slice
 10
34.3653895656663
 20
2.54558441227157
 30
0
 11
8.52063671329789
 21
1.09601551083915
 31
0
  0
LINE
  5
0
  8
Slice
 10
-2.54558441227157
 20
-34.3653895656663
 30
0
 11
-9.54594154601839
 21
-41.3657466994131
 31
0
  0
LINE
  5
0
  8
Slice
 10
19.3644433094953
 20
-51.1842484131805
 30
0
 11
23.5466558135121
 21
-55.3664610276923
 31
0
  0
ARC
  5
0
  8
Slice
 10
-10.4988977789059
 20
-39.4902758683397
 30
0
 40
2.00000000000005
 50
-110.314090899407
 51
-45.0000000000011
  0
ARC
  5
0
  8
Slice
 10
-39.4902758664185
 20
-10.4988977840959
 30
0
 40
1.99999999999998
 50
135.00000028811
 51
200.314090859772
  0
ARC
  5
0
  8
Slice
 10
-46.9927045360723
 20
-13.2762281671715
 30
0
 40
6.00000000000006
 50
-110.314090283548
 51
20.314090859772
  0
LINE
  5
0
  8
Slice
 10
-23.5466558135121
 20
55.3664610276923
 30
0
 11
-24.9608693150997
 21
55.3664610276923
 31
0
  0
ENDSEC
  0
EOF
