  0
SECTION
  2
HEADER
  9
$ACADVER
  1
AC1009
  9
$INSBASE
 10
0.0
 20
0.0
 30
0.0
  9
$EXTMIN
 10
-27.7539411919648
 20
-27.7539411919648
 30
0.0
  9
$EXTMAX
 10
27.7539411919648
 20
27.7539411919648
 30
0.0
  9
$LIMMIN
 10
0.0
 20
0.0
  9
$LIMMAX
 10
12.0000
 20
 9.0000
9
$ORTHOMODE
70
0
9
$REGENMODE
70
1
9
$FILLMODE
70
1
9
$QTEXTMODE
70
0
9
$MIRRTEXT
70
1
9
$DRAGMODE
70
2
9
$LTSCALE
40
1.0
9
$OSMODE
70
0
9
$ATTMODE
70
1
9
$TEXTSIZE
40
0.2
9
$TRACEWID
40
0.05
9
$TEXTSTYLE
7
STANDARD
9
$CLAYER
8
0
9
$CELTYPE
6
BYLAYER
9
$CECOLOR
62
256
9
$DIMSCALE
40
1.0
9
$DIMASZ
40
0.18
9
$DIMEXO
40
0.0625
9
$DIMDLI
40
0.38
9
$DIMRND
40
0.0
9
$DIMDLE
40
0.0
9
$DIMEXE
40
0.18
9
$DIMTP
40
0.0
9
$DIMTM
40
0.0
9
$DIMTXT
40
0.18
9
$DIMCEN
40
0.09
9
$DIMTSZ
40
0.0
9
$DIMTOL
70
0
9
$DIMLIM
70
0
9
$DIMTIH
70
1
9
$DIMTOH
70
1
9
$DIMSE1
70
0
9
$DIMSE2
70
0
9
$DIMTAD
70
0
9
$DIMZIN
70
0
9
$DIMBLK
1

9
$DIMASO
70
1
9
$DIMSHO
70
1
9
$DIMPOST
1

9
$DIMAPOST
1

9
$DIMALT
70
0
9
$DIMALTD
70
2
9
$DIMALTF
40
25.4
9
$DIMLFAC
40
1.0
9
$DIMTOFL
70
0
9
$DIMTVP
40
0.0
9
$DIMTIX
70
0
9
$DIMSOXD
70
0
9
$DIMSAH
70
0
9
$DIMBLK1
1

9
$DIMBLK2
1

9
$DIMSTYLE
2
*UNNAMED
9
$DIMCLRD
70
0
9
$DIMCLRE
70
0
9
$DIMCLRT
70
0
9
$DIMTFAC
40
1.0
9
$DIMGAP
40
0.09
9
$LUNITS
70
2
9
$LUPREC
70
4
9
$SKETCHINC
40
0.1
9
$FILLETRAD
40
0.0
9
$AUNITS
70
0
9
$AUPREC
70
0
9
$MENU
1
acad
9
$ELEVATION
40
0.0
9
$PELEVATION
40
0.0
9
$THICKNESS
40
0.0
9
$LIMCHECK
70
0
9
$BLIPMODE
70
1
9
$CHAMFERA
40
0.0
9
$CHAMFERB
40
0.0
9
$SKPOLY
70
0
9
$TDCREATE
40
2449214.701881018
9
$TDUPDATE
40
2449214.701881018
9
$TDINDWG
40
0.0000000000
9
$TDUSRTIMER
40
0.0000000000
9
$USRTIMER
70
1
9
$ANGBASE
50
0.0
9
$ANGDIR
70
0
9
$PDMODE
70
0
9
$PDSIZE
40
0.0
9
$PLINEWID
40
0.0
9
$COORDS
70
1
9
$SPLFRAME
70
0
9
$SPLINETYPE
70
6
9
$SPLINESEGS
70
8
9
$ATTDIA
70
0
9
$ATTREQ
70
1
9
$HANDLING
70
0
9
$HANDSEED
5
0
9
$SURFTAB1
70
6
9
$SURFTAB2
70
6
9
$SURFTYPE
70
6
9
$SURFU
70
6
9
$SURFV
70
6
9
$UCSNAME
2

9
$UCSORG
10
0.0
20
0.0
30
0.0
9
$UCSXDIR
10
1.0
20
0.0
30
0.0
9
$UCSYDIR
10
0.0
20
1.0
30
0.0
9
$PUCSNAME
2

9
$PUCSORG
10
0.0
20
0.0
30
0.0
9
$PUCSXDIR
10
1.0
20
0.0
30
0.0
9
$PUCSYDIR
10
0.0
20
1.0
30
0.0
9
$USERI1
70
0
9
$USERI2
70
0
9
$USERI3
70
0
9
$USERI4
70
0
9
$USERI5
70
0
9
$USERR1
40
0.0
9
$USERR2
40
0.0
9
$USERR3
40
0.0
9
$USERR4
40
0.0
9
$USERR5
40
0.0
9
$WORLDVIEW
70
1
9
$SHADEDGE
70
3
9
$SHADEDIF
70
70
9
$TILEMODE
70
1
9
$MAXACTVP
70
16
9
$PINSBASE
10
0.0
20
0.0
30
0.0
9
$PLIMCHECK
70
0
  9
$PEXTMIN
 10
1.0000000000000000E+020
 20
1.0000000000000000E+020
 30
1.0000000000000000E+020
  9
$PEXTMAX
 10
-1.0000000000000000E+020
 20
-1.0000000000000000E+020
 30
-1.0000000000000000E+020
  9
$PLIMMIN
 10
-27.7539411919648
 20
-27.7539411919648
  9
$PLIMMAX
 10
12.0000
 20
 9.0000
  9
$UNITMODE
 70
0
  9
$VISRETAIN
 70
1
  9
$PLINEGEN
 70
0
  9
$PSLTSCALE
 70
1
  0
ENDSEC
  0
SECTION
  2
TABLES
  0
TABLE
  2
VPORT
 70
3
  0
VPORT
  2
*ACTIVE
 70
0
 10
0.0
 20
0.0
 11
1.0
 21
1.0
 12
0
 22
0
 13
0.0
 23
0.0
 14
1.0
 24
1.0
 15
1.0
 25
1.0
 16
0.0
 26
0.0
 36
1.0
 17
0.0
 27
0.0
 37
0.0
 40
55.5078823839296
 41
1
 42
50.0
 43
0.0
 44
0.0
 50
0.0
 51
0.0
 71
0
 72
100
 73
1
 74
3
 75
0
 76
0
 77
0
 78
0
  0
ENDTAB
0
TABLE
2
LTYPE
70
1
0
LTYPE
2
CONTINUOUS
70
64
3
Solid line
72
65
73
0
40
0.0
0
ENDTAB
  0
TABLE
  2
LAYER
 70
2
  0
LAYER
  2
Slice
 70
0
 62
7
  6
CONTINUOUS
  0
ENDTAB
0
TABLE
2
STYLE
70
1
0
STYLE
2
STANDARD
70
64
40
0.0
41
1.0
50
0.0
71
0
42
0.2
3
txt
4

0
ENDTAB
0
TABLE
2
VIEW
70
0
0
ENDTAB
0
TABLE
2
UCS
70
0
0
ENDTAB
0
TABLE
2
APPID
70
1
0
APPID
2
ACAD
70
64
0
ENDTAB
0
TABLE
2
DIMSTYLE
70
0
0
ENDTAB
0
ENDSEC
0
SECTION
2
BLOCKS
0
ENDSEC
  0
SECTION
  2
ENTITIES
  0
LINE
  5
0
  8
Slice
 10
9.7529323328663
 20
-25.6628348847089
 30
0
 11
11.8440385848747
 21
-27.7539411919648
 31
0
  0
ARC
  5
0
  8
Slice
 10
24.9557280999667
 20
10.4600391104972
 30
0
 40
1.00000000000001
 50
-110.31409028355
 51
-44.9999997118905
  0
LINE
  5
0
  8
Slice
 10
-0.671751442127221
 20
4.27799602617861
 30
0
 11
-1.34350288425444
 21
17.2534054609518
 31
0
  0
LINE
  5
0
  8
Slice
 10
-12.5511453356685
 20
27.7539411919648
 30
0
 11
-27.7539411919648
 21
12.5511453356685
 31
0
  0
LINE
  5
0
  8
Slice
 10
0.671751442127221
 20
-4.27799602617861
 30
0
 11
1.34350288425444
 21
-17.2534054609518
 31
0
  0
ARC
  5
0
  8
Slice
 10
-10.4600390955708
 20
-24.9557281402877
 30
0
 40
1
 50
-44.9999999999957
 51
20.314090899406
  0
ARC
  5
0
  8
Slice
 10
-10.4600391104972
 20
24.9557280999667
 30
0
 40
1.00000000000001
 50
-20.31409028355
 51
45.0000002881095
  0
LINE
  5
0
  8
Slice
 10
25.6628348847089
 20
9.7529323328663
 30
0
 11
27.7539411919648
 21
11.8440385848747
 31
0
  0
LINE
  5
0
  8
Slice
 10
27.7539411919648
 20
11.8440385848747
 30
0
 11
27.7539411919648
 21
12.5511453356685
 31
0
  0
LINE
  5
0
  8
Slice
 10
4.84368145112785
 20
-20.7535840278252
 30
0
 11
1.34350288425444
 21
-17.2534054609518
 31
0
  0
ARC
  5
0
  8
Slice
 10
-19.8158486113279
 20
-5.32015957016661
 30
0
 40
0.999999999999988
 50
135.000000288109
 51
200.314090859772
  0
LINE
  5
0
  8
Slice
 10
-9.7529323328663
 20
25.6628348847089
 30
0
 11
-11.8440385848747
 21
27.7539411919648
 31
0
  0
ARC
  5
0
  8
Slice
 10
-5.3201595675716
 20
-19.8158486122885
 30
0
 40
1.00000000000003
 50
-110.314090899407
 51
-45.0000000000008
  0
ARC
  5
0
  8
Slice
 10
10.4600391104972
 20
-24.9557280999667
 30
0
 40
1.00000000000001
 50
159.68590971645
 51
225.00000028811
  0
LINE
  5
0
  8
Slice
 10
-27.7539411919648
 20
11.8440385848748
 30
0
 11
-25.6628349214742
 21
9.75293231438421
 31
0
  0
LINE
  5
0
  8
Slice
 10
4.27799602617861
 20
0.671751442127221
 30
0
 11
17.2534054609518
 21
1.34350288425444
 31
0
  0
LINE
  5
0
  8
Slice
 10
-4.27799602617861
 20
-0.671751442127221
 30
0
 11
-17.2534054609518
 21
-1.34350288425444
 31
0
  0
LINE
  5
0
  8
Slice
 10
-27.7539411919648
 20
12.5511453356685
 30
0
 11
-27.7539411919648
 21
11.8440385848748
 31
0
  0
LINE
  5
0
  8
Slice
 10
4.27799602617861
 20
-0.671751442127221
 30
0
 11
0.671751442127221
 21
-4.27799602617861
 31
0
  0
LINE
  5
0
  8
Slice
 10
11.8440385848748
 20
27.7539411919648
 30
0
 11
9.75293231438421
 21
25.6628349214742
 31
0
  0
LINE
  5
0
  8
Slice
 10
-11.8440385848747
 20
27.7539411919648
 30
0
 11
-12.5511453356685
 21
27.7539411919648
 31
0
  0
LINE
  5
0
  8
Slice
 10
-1.34350288425444
 20
-17.2534054609518
 30
0
 11
-0.671751442127221
 21
-4.27799602617861
 31
0
  0
LINE
  5
0
  8
Slice
 10
27.7539411919648
 20
12.5511453356685
 30
0
 11
12.5511453356685
 21
27.7539411919648
 31
0
  0
LINE
  5
0
  8
Slice
 10
20.7535840278252
 20
4.84368145112785
 30
0
 11
17.2534054609518
 21
1.34350288425444
 31
0
  0
LINE
  5
0
  8
Slice
 10
-0.671751442127221
 20
-4.27799602617861
 30
0
 11
-4.27799602617861
 21
-0.671751442127221
 31
0
  0
LINE
  5
0
  8
Slice
 10
-4.27799602617861
 20
0.671751442127221
 30
0
 11
-0.671751442127221
 21
4.27799602617861
 31
0
  0
ARC
  5
0
  8
Slice
 10
-23.5670629461548
 20
-6.70882476170441
 30
0
 40
3.00000000000002
 50
-110.314090283548
 51
20.314090859772
  0
LINE
  5
0
  8
Slice
 10
11.8440385848747
 20
-27.7539411919648
 30
0
 11
12.5511453356685
 21
-27.7539411919648
 31
0
  0
LINE
  5
0
  8
Slice
 10
12.5511453356685
 20
-27.7539411919648
 30
0
 11
27.7539411919648
 21
-12.5511453356685
 31
0
  0
LINE
  5
0
  8
Slice
 10
0.671751442127221
 20
4.27799602617861
 30
0
 11
4.27799602617861
 21
0.671751442127221
 31
0
  0
LINE
  5
0
  8
Slice
 10
-17.2534054609518
 20
1.34350288425444
 30
0
 11
-20.7535840278252
 21
4.84368145112785
 31
0
  0
LINE
  5
0
  8
Slice
 10
17.2534054609518
 20
-1.34350288425444
 30
0
 11
4.27799602617861
 21
-0.671751442127221
 31
0
  0
LINE
  5
0
  8
Slice
 10
-1.34350288425444
 20
-17.2534054609518
 30
0
 11
-4.84368145112785
 21
-20.7535840278252
 31
0
  0
LINE
  5
0
  8
Slice
 10
-11.8440385848748
 20
-27.7539411919648
 30
0
 11
-9.75293231438421
 21
-25.6628349214742
 31
0
  0
LINE
  5
0
  8
Slice
 10
17.2534054609518
 20
-1.34350288425444
 30
0
 11
20.7535840278252
 21
-4.84368145112785
 31
0
  0
LINE
  5
0
  8
Slice
 10
-17.2534054609518
 20
1.34350288425444
 30
0
 11
-4.27799602617861
 21
0.671751442127221
 31
0
  0
LINE
  5
0
  8
Slice
 10
27.7539411919648
 20
-11.8440385848748
 30
0
 11
25.6628349214742
 21
-9.75293231438421
 31
0
  0
LINE
  5
0
  8
Slice
 10
12.5511453356685
 20
27.7539411919648
 30
0
 11
11.8440385848748
 21
27.7539411919648
 31
0
  0
LINE
  5
0
  8
Slice
 10
-25.6628348847089
 20
-9.7529323328663
 30
0
 11
-27.7539411919648
 21
-11.8440385848747
 31
0
  0
LINE
  5
0
  8
Slice
 10
-27.7539411919648
 20
-11.8440385848747
 30
0
 11
-27.7539411919648
 21
-12.5511453356685
 31
0
  0
ARC
  5
0
  8
Slice
 10
-6.70882476170445
 20
-23.5670629461548
 30
0
 40
2.99999999999998
 50
69.685909100591
 51
200.31409089941
  0
ARC
  5
0
  8
Slice
 10
-5.32015957016661
 20
19.8158486113279
 30
0
 40
0.999999999999988
 50
45.0000002881093
 51
110.314090859772
  0
ARC
  5
0
  8
Slice
 10
19.8158486113279
 20
5.32015957016661
 30
0
 40
0.999999999999988
 50
-44.9999997118907
 51
20.3140908597723
  0
ARC
  5
0
  8
Slice
 10
-24.9557281402877
 20
10.4600390955708
 30
0
 40
1
 50
-134.999999999996
 51
-69.685909100594
  0
ARC
  5
0
  8
Slice
 10
-23.5670629461548
 20
6.70882476170445
 30
0
 40
2.99999999999998
 50
-20.314090899409
 51
110.31409089941
  0
LINE
  5
0
  8
Slice
 10
-27.7539411919648
 20
-12.5511453356685
 30
0
 11
-12.5511453356685
 21
-27.7539411919648
 31
0
  0
ARC
  5
0
  8
Slice
 10
6.70882476170441
 20
-23.5670629461548
 30
0
 40
3.00000000000002
 50
-20.3140902835478
 51
110.314090859772
  0
ARC
  5
0
  8
Slice
 10
-24.9557280999667
 20
-10.4600391104972
 30
0
 40
1.00000000000001
 50
69.68590971645
 51
135.00000028811
  0
ARC
  5
0
  8
Slice
 10
5.3201595675716
 20
19.8158486122885
 30
0
 40
1.00000000000003
 50
69.6859091005931
 51
134.999999999999
  0
ARC
  5
0
  8
Slice
 10
5.32015957016661
 20
-19.8158486113279
 30
0
 40
0.999999999999988
 50
-134.999999711891
 51
-69.6859091402277
  0
ARC
  5
0
  8
Slice
 10
-6.70882476170441
 20
23.5670629461548
 30
0
 40
3.00000000000002
 50
159.685909716452
 51
290.314090859772
  0
LINE
  5
0
  8
Slice
 10
-12.5511453356685
 20
-27.7539411919648
 30
0
 11
-11.8440385848748
 21
-27.7539411919648
 31
0
  0
ARC
  5
0
  8
Slice
 10
24.9557281402877
 20
-10.4600390955708
 30
0
 40
1
 50
45.0000000000043
 51
110.314090899406
  0
ARC
  5
0
  8
Slice
 10
6.70882476170445
 20
23.5670629461548
 30
0
 40
2.99999999999998
 50
-110.314090899409
 51
20.3140908994102
  0
ARC
  5
0
  8
Slice
 10
10.4600390955708
 20
24.9557281402877
 30
0
 40
1
 50
135.000000000004
 51
200.314090899406
  0
ARC
  5
0
  8
Slice
 10
23.5670629461548
 20
6.70882476170441
 30
0
 40
3.00000000000002
 50
69.6859097164522
 51
200.314090859772
  0
ARC
  5
0
  8
Slice
 10
-19.8158486122885
 20
5.3201595675716
 30
0
 40
1.00000000000003
 50
159.685909100593
 51
224.999999999999
  0
ARC
  5
0
  8
Slice
 10
19.8158486122885
 20
-5.3201595675716
 30
0
 40
1.00000000000003
 50
-20.3140908994069
 51
44.9999999999992
  0
LINE
  5
0
  8
Slice
 10
1.34350288425444
 20
17.2534054609518
 30
0
 11
4.84368145112785
 21
20.7535840278252
 31
0
  0
LINE
  5
0
  8
Slice
 10
-4.84368145112785
 20
20.7535840278252
 30
0
 11
-1.34350288425444
 21
17.2534054609518
 31
0
  0
LINE
  5
0
  8
Slice
 10
-20.7535840278252
 20
-4.84368145112785
 30
0
 11
-17.2534054609518
 21
-1.34350288425444
 31
0
  0
LINE
  5
0
  8
Slice
 10
27.7539411919648
 20
-12.5511453356685
 30
0
 11
27.7539411919648
 21
-11.8440385848748
 31
0
  0
LINE
  5
0
  8
Slice
 10
1.34350288425444
 20
17.2534054609518
 30
0
 11
0.671751442127221
 21
4.27799602617861
 31
0
  0
ARC
  5
0
  8
Slice
 10
23.5670629461548
 20
-6.70882476170445
 30
0
 40
2.99999999999998
 50
159.685909100591
 51
290.31409089941
  0
ENDSEC
  0
EOF
